# xmcd
#
# Track frame offsets: 
#        150
#        14000
#        30105
#        70666
#        79701
#        92605
#        108329
#        127185
#        150786
#        164178
#        177446
#        185702
#        204706
#        217609
#        242840
#        256234
#        265813
#        277668
#
# Disc length: 3902 seconds
#
# Revision: 0
# Processed by: cddbd v1.5.2PL0 Copyright (c) Steve Scherf et al.
# Submitted via: ExactAudioCopy v0.99pb4
#
DISCID=ed0f3c12
DTITLE=Various Artist - Het Beste Uit 25 Jaar Funiculi Funicula - CD 3
DYEAR=2016
DGENRE=Chamber Music
TTITLE0=Wiener Philharmoniker - Unter Donner Und Blitz, Polka, Op. 324
TTITLE1=Richard Tucker and Columbia Symphony Orchestra - Yours Is My Hea
TTITLE1=rt Alone (From 'The Land Of Smiles')
TTITLE2=Luis Cobos and The Royal Philharmonic Orchestra - Gloire Immorte
TTITLE2=lle
TTITLE3=Joseph Calleja and BBC Concert Orchestra - Because You're Mine
TTITLE4=Frederica Von Stade and Rotterdam Philh. Orchestra - Voi Che Sap
TTITLE4=ete (From 'Le Nozze Di Figaro')
TTITLE5=The National Philharmonic Orchestra and Bruno Bartoletti - Dance
TTITLE5=Of The Hours
TTITLE6=José Bros and Orquesta De La Comunidad De Madrid - Bella Enamora
TTITLE6=da
TTITLE7=Juan Diego Flórez and Orchestra Sinfonica Di Milano Giuseppe Ver
TTITLE7=di - Una Furtiva Lagrima (From 'L'Elisir D'Amore')
TTITLE8=Geoff Love - Love's Last Word Is Spoken
TTITLE9=Bryn Terfel - Oh! What A Beautiful Mornin' (From 'Oklahoma')
TTITLE10=Daniele Callegari - Questa O Quella (From 'Rigoletto')
TTITLE11=Orchestra Of The Royal Opera House - Va Pensiero (From 'Nabuc
TTITLE11=co')
TTITLE12=Mantovani and His Orchestra - Barcarolle (From 'Tales Of Hoffma
TTITLE12=n')
TTITLE13=Sissel - Mon Coeur S'Ouvre A Ta Voix (From 'Samson Et Dalila'
TTITLE13=)
TTITLE14=Plácido Domingo and The London Symphony Orchestra - Non Ti Scor
TTITLE14=dar Di Me
TTITLE15=Nina Postolovskaya - Alt Wien
TTITLE16=Fritz Wunderlich - Ich Küsse Ihre Hand, Madame
TTITLE17=James Last And His Orchestra - Es Wird A Wein Sein
EXTD=
EXTT0=
EXTT1=
EXTT2=
EXTT3=
EXTT4=
EXTT5=
EXTT6=
EXTT7=
EXTT8=
EXTT9=
EXTT10=
EXTT11=
EXTT12=
EXTT13=
EXTT14=
EXTT15=
EXTT16=
EXTT17=
PLAYORDER=
